<svg xmlns="http://www.w3.org/2000/svg" viewBox="0 0 1291 784.05"><defs><style>.cls-1{fill:#008fff;}</style></defs><g id="Layer_2" data-name="Layer 2"><g id="Layer_1-2" data-name="Layer 1"><path class="cls-1" d="M1265.46.47c-3-.52-4.27-1.13-6.39,1.33-2.64,3.07-5.57,6.42-9.12,8.08-6.83,3.2-10.86,9.07-15.09,14.52-5.36,6.89-12.18,12.39-17.33,19.4a2.22,2.22,0,0,1-1.33.6c-4.09.68-6.63,3.48-9.07,6.47-2.73,3.34-6.09,4.1-10.27,2.85-3.78-1.13-8-2.9-11.56-2.2-6.68,1.32-13.24-1.39-19.77.4-.88.24-2.57.14-2.82-.35-1.66-3.26-4.66-2.06-7-2.09-6-.08-12.1.46-18.16.47-13.7,0-26.84,1.49-39.81,7.1C1078,65.57,1065,79.92,1057,99.15a56,56,0,0,0-4,27.23c.82,8.35,1.65,15.92,7.77,22.07a2.79,2.79,0,0,1,.51.85c5.09,11.68,14.67,18.87,25.23,25,4.23,2.45,4.8,4.89,1.21,8.26-6.81,6.4-14.18,12.15-19.16,20.46-.93,1.55-2.83,4.41-5,5.57-6.85,3.59-9.81,10.86-15.18,15.9a83.82,83.82,0,0,0-9.49,11.26c-1,1.4-.76,3.89-3.38,4.4-3.58.7-4.41,4.9-3.92,6.75.8,3.05,2.11,6.76,6.86,7.34,5.49.67,11.44,1.14,16,4.27,3.58,2.43,5.16,1.63,7.25-1.21a276.45,276.45,0,0,1,24.93-29.22c10-10.21,19.32-21.05,29.85-30.72,1.48-1.36,3.12-4.31,5.22-2.9,4.57,3,10.66,2.88,14.51,6.35a37.37,37.37,0,0,0,10.51,6.27,315.65,315.65,0,0,0,31.75,11.7c4.43,1.37,10.2.5,13.19,3,5.85,4.82,11.59.47,17.17,1.79,1.26.3,2.35-1.71,2.74-3.21a34,34,0,0,1,4.55-10.31c1.16-1.75,2.11-4.07,1.58-6.16a8,8,0,0,1,2-7.81c3-3.26,1.28-5.25-1.8-6.7a17,17,0,0,0-4.82-1.22c-10.48-1.48-21.14-2.33-31-6.39-8.2-3.38-17.19-4.84-24.22-11.32-2.12-1.95-6.36-2-8.15-5.46-.39-.75-1.79,1-2.54-.31a180.86,180.86,0,0,1,19.47-24.48c6.92-7.37,14.4-14.3,21.25-21.79,6.25-6.85,11.26-14.8,18.62-20.66,1.71-1.35,3.43-3.43,5.59-2.67,4.3,1.5,8.9,1.22,13.16,2.68,7.21,2.48,14.41,5,21.61,7.53,3,1,5.5.65,7.26-2.37,3.66-6.29,7.45-12.51,11.11-18.81a3.17,3.17,0,0,0-1.48-4.69c-7.33-2.47-11.8-9.86-19.76-11.2-2.86-.48-.81-3.14-.43-3.29,4.28-1.57,3.84-8.81,9.87-8.17.34,0,.8-.56,1.11-.94,3.43-4.17,6.73-8.44,11.68-11a5.39,5.39,0,0,0,2-2.15c3.15-5.86,9.9-8.22,13-14.73,1.73-3.58,7-6.39,9.7-10.53v-4C1281,12.15,1275.48,2.2,1265.46.47Zm-91,86.79a15.76,15.76,0,0,1-4.43,5.68c-6.43,4.55-11.39,10.29-16.49,16.25-3.09,3.62-6.27,7.77-9.84,11.27-7.55,7.42-15.93,14.28-22.11,23.07-1.87,2.67-3.5,3.62-6.32,1.33a37.14,37.14,0,0,0-5.17-3c-10.89-6.22-17.41-15.29-17.62-28.1-.11-7.14,2.5-13.4,8.26-17.91a106.83,106.83,0,0,1,11.8-8.32c3.41-2,7.62-1.66,11.44-2.67a69.43,69.43,0,0,1,23.14-2.32,144.17,144.17,0,0,1,25,1.37C1174,84.13,1175.43,85.36,1174.45,87.26Z"/><path class="cls-1" d="M420.09,727.23c-2.59-2.09,1.85-3.85-.65-6-1.88-1.62-5.28.21-6-3.32-1-4.7-5.2-7.32-7.61-11.11-.25-.39-1-.93-1.14-.83-4.29,2.57-5-1.89-6.54-3.71a36.34,36.34,0,0,0-5.92-5.65c-3.32-2.57-6.43-5.42-9.73-8-3.79-3-6.65-6.72-9.77-10.33-8.34-9.66-18.65-17.33-28.34-25.51-7.47-6.3-13.73-14.26-22.94-18.46-.61-.28-1-1.31-1.25-2.06-2.77-8-9.26-13-15.63-17.4-16.94-11.65-36.62-16.7-56.45-20.77a118.17,118.17,0,0,0-30.29-2.15c-1.54.08-4.93,1.16-2.68-2.81,5.94-10.47,1.92-21.32,1.1-32a6.63,6.63,0,0,0-1.29-2.66,59.24,59.24,0,0,0-17.8-17.9c-16.64-11.07-34-20.86-53-27.4-4.41-1.52-9-2.8-14.12-6.32,14.59-.69,27.06-3.67,37.53-12.68,3.55-3.05,5-7,1.4-10-2.35-1.91-4-4.24-6.12-6.25-12.75-12.13-26.65-22.9-40.26-34-11.3-9.24-23.68-17-35.3-25.84-6.48-4.92-12.58-10.4-19.76-14.32-11-6-20.31-14.24-30.42-21.43-3.56-2.52-6-7.05-11.53-5.46-.59.17-1.45-.68-2.2-1C19.28,370,8,373.82,6,377.71a1.83,1.83,0,0,0-.18.46C5,381.92,2.4,384.57,0,387.33v1c1.82,2.11,2.61,4.89,5.25,6.52,16.11,9.92,31,21.62,46.62,32.26,5.74,3.92,11.51,7.71,16.62,12.5a196.8,196.8,0,0,0,31.05,24.1c5.5,3.4,11,7.3,14.87,13.39-7,1.32-13.52,2.52-20,3.76-3.44.66-6.54,2.38-10.4,1.7-9.33-1.66-17.56,1.07-24.48,7.57-1,.95-2.27.54-3.31.48-5.3-.3-7.44,2.08-6.93,7.39.13,1.41-.19,3.46-1.85,4.34-3.68,1.94-1.55,3.7.24,5.13,2.81,2.25,6.42,2.66,9.81,3.27,27.75,5,54.68,12.27,79.91,25.4,16.5,8.59,33.34,16.5,49.11,26.45,2.69,1.7,5.26,3.48,6.29,6.76,1.69,5.34,0,9-6.6,13.48-12.62,8.59-27.63,11.83-41.22,18.24-3,1.41-8.17,0-8.2,5.77,0,.75-.81.79-1.55.76-3.49-.11-5.94,1.84-8.8,3.65-3.68,2.31-1.5,3.66.18,4.27,3,1.07,3.5,2.56,2.51,5.26-.46,1.24.45,2.26,1.27,3.07,2.7,2.63,5.3,5,9.54,5.49,4,.43,7.93,0,11.88,0,7.16,0,14.08-1.81,21-3.66,2.53-.68,1.17-1.82.42-3.14,2.19,2.42,5,2.23,7.72,2.05,4.94-.34,9.85-1.19,14.79-1.45,6.06-.32,11.93-1.87,17.88-2.53,7.69-.85,15.54-.09,23.29.75s15.26,1.12,22.29,5.13c7.76,4.44,16.55,7.29,23.78,12.39,10.32,7.27,21.07,13.91,29.92,23.51A197.73,197.73,0,0,0,334.45,682a295.87,295.87,0,0,1,24.48,22.4c9.29,9.34,21.2,15.62,29.15,26.48A28.39,28.39,0,0,0,401.81,741c5.65,1.91,8.33,8.63,16.24,8,4.94-.42,8.9.68,11-4.83a2.12,2.12,0,0,1,1.48-1.1c3.14-.29,1.49-1.81.77-3A51.86,51.86,0,0,0,420.09,727.23Z"/><path class="cls-1" d="M879.07,282.35c-6.58-2.44-13.14-1.34-19.66-1.72-9.57-.54-19.29-2.15-28.74-.44-6.06,1.1-11.39-.79-17.06-1.21-1.68-.12-2-2.18-1.27-2.35,3.94-.91,2.3-4.81,4-6.71,5.16-5.84,10-11.75,12.21-19.51.55-1.95,2.23-3.75,3.76-5.23,7.59-7.35,12.75-16.23,17-25.78,1.41-3.19,3.2-6.2,4.69-9.35,4.39-9.26,10.25-17.85,12.44-28.13,1-4.53-.44-11.81-4.49-13.64-10.55-4.77-20.09-13.08-33.31-9.29-4.65,1.34-7.63,3.43-9.53,7.64a114.45,114.45,0,0,1-12,20.83c-5.08,6.87-9.36,14.4-15.28,20.7-5.21,5.55-6.91,13.58-12.8,18.76-4,3.5-6,8.16-7.58,13.18-1,3.13-1.65,6.67-6.19,7.55-1.37.26-4.15,1.42-4.75,3.87C758,261.34,750.14,268,746,276.88c-1.5,3.22-4.12,3.57-7.09,2.27a17.72,17.72,0,0,0-15.49.21c-5.53,3-10.48,4.68-16.42,2.05a3.63,3.63,0,0,0-2.4.31c-4.6,1.8-9.29,1.33-14.09,1.28-3.62,0-7.14-2.21-10.71-.64-3.76,1.66-8,.32-11.89,2.36-2,1-5.67,2-8.13.91-4.77-2.16-8.65.84-12.92,1.3-1.59.17-2.94,1.14-4.8.57a17.94,17.94,0,0,0-15.41,2,20.56,20.56,0,0,1-9.31,3.1c-3.72.29-7.62,0-10.77,2.51-1.84,1.45-4.11,1.82-5.94,2.71-4.07,2-8.16,3.92-12.38,5.55-6.31,2.44-9.63,9-15.86,11.4-2.64,1-4.3,2.13-3.51,5.38.39,1.63-.77,2.57-2.53,3.05a27.6,27.6,0,0,0-5.42,2.43c-3.34,1.77-1,7-2.82,7.57-3.06.88-5.68,1.87-6.4,4.71a16.3,16.3,0,0,1-3.7,6.56c-3.46,4.3-4.91,9.66-6.62,14.89-1.44,4.4-1.26,8.82-1.79,13.25-.79,6.7-4.7,13.19-2.32,20.06,1.29,3.71.27,7.35,1.24,11.13a58.69,58.69,0,0,0,7.2,16.07c2.41,4,4,8.09,8.68,10.51,4,2.06,5,8.11,10.44,8.72.13,0,.1.7.31.9,3.72,3.56,7,8,13,6.5.62,1.61-2.45,1.49-1,2.85,1,.94,2.53,2,3.92.41.59-.67.61-2.31,2-1.39,4.31,2.9,9.9,3.48,13.48,7.8,2,2.41,4.68,4.64,8.16,3.1,5.2-2.3,9.89-3.09,15.22.31,6.82,4.35,15.43,3,23,5.58-4.74,5.91-8.07,12.16-9.45,19.21-1,4.95-5.39,7.31-7.53,11.35-4.31,8.14-7.66,16.91-14.9,23.22-1.91,1.67-2.63,4.2-3.18,6.67-.28,1.27-.25,2.64-1.7,3.41-2.44,1.29-2.8,3.19-2.14,5.88.75,3.06-2.21,6.07-4.36,4.59-3.9-2.68-9.3,1.55-12.49-3.15,0-.05-1,.28-1.13.6-1,2.44-2,.92-2.77,0a8.65,8.65,0,0,0-6-3.21c-7.5-1.22-14.84-3.58-22.52-3.46-5.82.1-10.75-3.33-16.29-3.89a38,38,0,0,1-12.87-3.56,11.4,11.4,0,0,0-12.82,2.2c-5.55,5.38-10.5,11.47-13.24,18.52-2.26,5.8-7.66,12.74.6,18.67a2.75,2.75,0,0,1,.57,2.31c-.8,4.09,2,5.88,4.88,7.16a116.84,116.84,0,0,0,32.82,9.63,28,28,0,0,1,12,4.23,44.61,44.61,0,0,0,20.24,6.7c-1.38,1.49-4.74,2.55-2,4.52,2,1.45.31,1.87.33,2.85.07,3.13-3.55,3.81-3.92,6.43-1.47,10.42-7.72,18.77-14,26.13-5.47,6.39-5.15,12.25-4.06,19,.44,2.78,1.72,5.26,4.72,6.53a10.31,10.31,0,0,1,4.22,4.14c3.32,5,6.35,5,9.92.4.59-.76,1-2,2.14-1.78s1.3,1.46,1.16,2.44c-.84,6,3.52,9.82,6,14.31a8.49,8.49,0,0,0,8.65,4c6.39-1.08,12.15-3.65,14.62-10.47,3.08-8.51,7-16.44,14-22.55a11.59,11.59,0,0,0,2.64-4.2c2.93-6.8,4.61-14,8.4-20.6,3.57-6.24,8-12,10.83-18.75.82-2,2.83-2.35,4.7-2,4.76.86,9.8.4,14.26,2.71a15.53,15.53,0,0,0,5.26,1.31c7.69,1.09,15.37-.45,23.17.21,5.93.49,12.15,1.09,18.28,1.11s12.39-.52,18.57-.07a11.67,11.67,0,0,0,5.69-1.4c5.45-2.33,11-4.08,17-2.15a9.82,9.82,0,0,0,3.94.12c5-.57,10.1-1,14.76-2.3,4-1.12,8.56.46,11.81-2.26,2.8-2.33,5.87-2.79,9.12-3.1a6.59,6.59,0,0,0,2.83-.72c5.53-3.15,10.49-7.92,17.74-6.27.18,0,.46-.88.83-1.08,4-2.16,8.11-6.06,12.1-6,6.73.15,8.62-7.37,14.62-7.23-1-4,1.88-4.44,4.61-5.06.69-.16,1.35-1,.94-1.47-2.69-3,.73-2.65,1.84-3s2.2,0,2.64-1.94a5.78,5.78,0,0,1,4.95-4.36,4.25,4.25,0,0,0,3.78-3.4c.5-4.41,3.64-7.3,6-10.21,3.16-3.84,3-7.83,2.88-12,0-1.56-.26-3.21.64-4.3,3.25-3.92,3.38-8.65,3.83-13.28.87-8.84.84-17.78-4.91-25.06-3-3.81-3.34-7.85-4-12.06-1-6.36-3.8-12.13-8.69-15.76a14.9,14.9,0,0,1-5.8-8.14c-.73-2.58-2-4.18-4-4.28-7.54-.36-10.53-7-15.58-10.75-2.71-2-5.61-4.92-8.73-4.33-4.16.79-6.71-.76-9-3.34-3.57-4-7.87-5.65-12.8-3.64-2,.8-3.39.17-5.16,0-5.73-.48-8.78-5.84-14.13-7.17-3.68-.92-7.42-1-11.09-1.84-2.42-.56-4.52-2.45-7.07-2C744,419.27,738.05,417,732,417.4c4.46-8.69,9.58-16.5,14.53-24.41,1.34-2.15.52-4.91,2-7.13,2.51-3.66,4.77-7.5,7.05-11.31,3.77-6.26,8.69-11.87,10.72-19.11.16-.59.79-1,1.17-1.57,3.75-5.3,8.3-9.91,10.51-16.45.85-2.52,3.14-7.49,8.13-6.25s10.1,1.11,15.34.59c5.4-.54,11.47-2.69,16.23,2.6,1.2,1.33,3.32,1.36,5.19,1.44,5.27.22,10.53.33,15.82.24a79.13,79.13,0,0,1,16.19,1.34,44.93,44.93,0,0,0,16.15.19c7-1.22,10.11-7,12.58-12.36,4.45-9.69,5.28-20.4,5.8-30.9C889.73,288,884.71,284.43,879.07,282.35ZM646.23,406.74c-4.41-1.32-9.32-1.85-14-2.74-5.66-1.08-11.31-2-17-2.54-.49,0-1.08-.57-1.4-.42-6.26,2.95-9.45-2.37-12.47-5.57-3.42-3.63-9.15-6.9-6.57-13.82,1.49-4-.81-8.59,1.86-12.59.77-1.14,1-2.28,2.67-2.4,2.15-.15,1.92-.6.35-1.81-1.1-.85-.12-2.07,1-1.94,4,.49,3.35-1.94,3.63-4.57s0-7,5.29-5.12c.38.15,1.28,0,1.34-.22,1.47-5,4.62-2.74,7-1.44a2.92,2.92,0,0,0,.88-3.37c-1.42-2.9-1.35-4.15,2.25-2.62,4,1.71,7.82-.42,12.42-1.33s9-4.23,14.25-3.21c7,1.35,13.82-.46,20.69-1.64,4.86-.84,9.87-.72,14.78-1.33,6.09-.74,12.33.25,18.3-2.3,4.27-1.82,8.23,1.64,12.46,2.08,1.17.12.59,1.8,0,2.51-3.68,4.33-4.57,10.24-7.31,14.58-3.35,5.32-5.38,11.24-8.82,16.52-5.79,8.88-13.18,17-15.45,28-1.07,5.2-4.58,9.38-8.71,12.89a2.05,2.05,0,0,1-2.63.19c-2.3-1.13-5-.79-7.19-1.75C658.18,408.31,652,408.48,646.23,406.74Zm103.89,66c5.28-.23,8.92,3.41,13.74,3.49,2.47,0,5,.76,7.39.35,2.66-.45,4.6.18,7,1.33,2.55,1.23,5.3,3,8.47,2.28,1.5-.37,2.14.77,3,1.43q6.92,5.55,13.7,11.27c1.64,1.38,1.74,3.53,2.11,5.45A110.63,110.63,0,0,0,809,511.66c1.23,3.83-.52,8.68-3,11.11a50.45,50.45,0,0,1-15.66,10c-3,1.27-6.31-.09-9.55,1.53-3,1.52-6.18,3.66-9.08,4.46-4.94,1.35-9.2,3.91-13.85,5.45s-10,.85-15-.37c-1.67-.4-3.54-.89-4.83.17-6.78,5.59-14.49,1.59-21.68,2.57-3.15.42-6.38-.18-9.45.9-5.29,1.88-11.91,2.36-15.95.52-7.38-3.38-14.28-.19-21.3-1.34-3.39-.56-7.26.69-11.16.42,2.23-7.25,7.11-12.8,10.71-19.07,4.87-8.49,10.09-16.88,13.93-25.84,4.26-9.91,11.13-17.87,17.14-26.5.19-.28.58-.52.58-.79.12-6.21,5.24-4.61,8.49-4.91,2.82-.26,5.54-.95,8.3-1.35,4-.58,7.19,1.81,10.83,2.49A96,96,0,0,0,750.12,472.71Z"/><path class="cls-1" d="M1091.54,435.4c-3.28-4.3-11.45-5.8-16.14-1.81-5,4.29-6.62,10.64-10.19,15.81-8.6,12.43-18.33,24.18-24.11,38.38-3.89,9.55-11.12,17.05-15.88,26.18-2.66,5.1-7.09,9.79-9.42,15.2-4.68,10.9-12.38,19.86-18.06,30.1-4.13,7.45-9.09,14.5-13.48,21.87-3.89,6.53-6.18,13.8-10.28,20.18-6.21,9.66-11.5,19.85-18,29.35-6,8.76-8.82,19.38-13.29,29.06-1,2.2-1.28,4.39.74,5.88,2.89,2.12.87,7.92,6.21,8-1.46,6.22,3.94,4.59,6.38,4.83,9,.91,17.66-2.54,26.5-3.87,3.31-.5,6.08.39,9.08.6,1.28.09,1.89,1.2.58,2.5-5.55,5.52-10.45,11.92-16.69,16.48-12.51,9.14-23.13,20.36-34.93,30.27-17.29,14.5-33.38,30.44-49.4,46.38-2.72,2.72-2.63,5.11-.84,7.94,2,3.13,5.13,3.25,8.42,4.31,7.44,2.38,13,.21,18.79-3.54,8.56-5.56,15.62-13,24.29-18.52a75.57,75.57,0,0,0,17.88-15.77c6.46-7.78,15.9-12.7,23.45-19.68,8.86-8.19,18.68-15.35,27.8-23.28,8.09-7,16.16-14.14,24-21.49s15.32-14.53,22.55-22.21c2.76-2.93,5.13-6.53,5.64-9.91.14-7.29-2.63-13.22-8.37-14-4.75-.63-9.25-3.8-13.88-2.61-7.14,1.83-15-1.2-21.66,3.45-.17.12-.81-.23-1.09-.5-1.85-1.77-4.12-1.06-6.18-.91-4.9.34-9.95-.72-14.67,1.71-1,.49-4.28.84-2.7-1.91,2.42-4.23,2.83-9.13,5.14-13.26,6.41-11.45,12.87-22.88,19.66-34.11,8.59-14.19,17.78-28,26.22-42.28,8-13.61,17.32-26.36,26-39.49,6.24-9.4,12.69-18.66,19.06-28,3.87-5.67,5.11-12.53,8.5-18.47,4-6.93,3.6-10-.64-14.54A102.17,102.17,0,0,1,1091.54,435.4Z"/><path class="cls-1" d="M337.31,311c.91,12.35,1.57,22,2.32,31.58,1.86,23.7,3.83,47.4,5.57,71.11.3,4.11-.15,8.07,5.75,7.92,1.62,0,2.4,1.67,3.57,2.56,3.43,2.63,14,3.06,15.61.2,1.78-3.08,4-3.34,6.65-2.06,3.65,1.75,4.5-.09,4.53-3.18,0-4,.15-8-.1-12q-1.59-25.33-3.39-50.65c-.73-10.26-1.74-20.51-2.35-30.78-.63-10.62-4.34-20.83-4.16-31.55a3.4,3.4,0,0,0-3.09-3.82c-3.84-.77-7.39-2-8-6.76-.19-1.47-1.48-2-2.73-2.64-3.91-1.94-6.93-1.88-11.23.62s-7.23,5.13-7.13,9.67C339.3,298.78,336.59,306.11,337.31,311Z"/><path class="cls-1" d="M1206.82,582.28c-4.91,2.12-10.5.38-15.13,3-3.46,2-6.7,4.32-10,6.48-9,5.83-16.71,13.36-25.56,19.48-8,5.55-19.22,8.61-20.43,21-4.85,3-.55,6.75.5,8.3,2.83,4.17,5.35,11,12.95,6.77.37-.2,1,0,1.74,0,2.73,1.06,4.86-.84,7.08-2.24,10.4-6.54,19.82-14.42,29.77-21.56,5-3.56,9.48-7.65,14.56-11.08,6.86-4.62,10.07-11.82,11.35-19.75C1214.13,589.52,1208.64,581.49,1206.82,582.28Z"/></g></g></svg>