<svg xmlns="http://www.w3.org/2000/svg" viewBox="0 0 96.4 104.74"><defs><style>.cls-1{fill:#28328c;}.cls-2{fill:#ff7fb3;}</style></defs><g id="Layer_2" data-name="Layer 2"><g id="Layer_1-2" data-name="Layer 1"><path class="cls-1" d="M67,68.81c.07-.28.13-.49.18-.71s.12-.34-.11-.34c-.39,0-.18-.19-.17-.34,0-.73.41-1.43.17-2.19,0-.19-.28-.34-.21-.48.3-.54,0-1-.12-1.51A1.09,1.09,0,0,1,67,62a.36.36,0,0,0,.12-.48c-.23.08-.2.36-.42.39-.12-.31.16-.81,0-.87-.57-.3-.31-.78-.28-1.14s.18-.92-.36-1.21c-.07,0-.1-.18-.12-.28-.16-.55.07-1.22-.53-1.65-.16-.12.1-.22.16-.34s.49-.26.46-.66c-.45.23-.57,0-.69-.39s0-.7-.22-.79c-.52-.31-.33-.77-.42-1.19-.14-.63.64-1.28-.26-1.95-.49-.37-.68-1.26-.92-2s-.38-.78-1.22-.49c-.68.25-1.38.46-2.06.72-1.22.46-2.44.94-3.66,1.43-.17.07-.47.13-.37.41.2.52.3,1.11.93,1.39s.55.53.15,1c-.16.17-.38.32-.19.57s.43.74,1,.64a.54.54,0,0,1,.56.2.28.28,0,0,1,0,.18c0,.06-.07.12-.14.05-.35-.33-.69.29-1.07,0-.08,0-.22.21-.15.34.26.44.2,1.08.83,1.3.21.08.39.32.21.54s-.35.42,0,.67c.22.15.32.23.07.44-.05,0,0,.2,0,.29.2.49.55.95.32,1.53,0,.05.09.17.16.24A4,4,0,0,1,60,62.72c.09.34,0,.5-.3.63a.93.93,0,0,0-.46,1.42c.06.1.27.36,0,.37-.43,0-.28.17-.14.37a.47.47,0,0,1,0,.47,3.17,3.17,0,0,0-.18,2.08,2.16,2.16,0,0,1-.26,1.56,20.77,20.77,0,0,0-.94,2.29,26,26,0,0,0-1.8,3.21.27.27,0,0,1-.17.16c-.44,0-.37.28-.48.55s.14.87-.38.94-.59.53-.82.85c0,.08,0,.23-.12.31a9.51,9.51,0,0,0-1.72,1.24,10.77,10.77,0,0,1-3.48,2.14c-.13,0-.3.11-.35.22a1.46,1.46,0,0,1-1,.68c-.46.15-1,.1-1.33.56-.05.07-.24.08-.35.06a4.27,4.27,0,0,0-1.78-.06c-.08,0-.21,0-.19-.08.09-.39-.2-.23-.36-.29a8,8,0,0,0-1.45-.31,1.42,1.42,0,0,1-1.23-1.17c-.12-.62-.09-1.27-.2-1.87-.18-1.08-.11-2.18-.36-3.24a1.42,1.42,0,0,0-.49-1c.65.24.87.21.64-.46a1.65,1.65,0,0,1,.12-1.16c.08-.18.23-.39.05-.57a.46.46,0,0,0-.67-.06c-.1.08-.19.1-.26,0a.38.38,0,0,1,0-.41c.09-.15.16-.11.29,0s.34,0,.41-.24c.13-.5-.36-.5-.57-.69s-.69-.61-.62-1a5,5,0,0,1,.13-1.27.52.52,0,0,0-.34-.7c-.47-.2-.71-.5-.5-1,0-.07,0-.2,0-.24-.42-.38-.33-.92-.44-1.39a2,2,0,0,0-.46-1.18.51.51,0,0,1,.08-.77c.17-.14.32-.34.1-.44-.51-.23-.55-.75-.82-1.12s-.22-.41.09-.65.63-.53,0-.94c-.19-.13-1-.5-.43-1.14.07-.08,0-.15-.17-.18-.35-.09-.49-.27-.41-.69,0-.25.15-.74-.42-.79-.2,0-.24-.29-.23-.47a3,3,0,0,0-.44-1.44,8.58,8.58,0,0,0-1-2.49c-.28-.31-.29-.79-.54-1.17A7.63,7.63,0,0,0,32,50.55a5.13,5.13,0,0,1-.84-1.2c-.2-.27-.33-.67-.74-.7a.66.66,0,0,1-.65-.6.57.57,0,0,0-.35-.47,2.17,2.17,0,0,1-.69-.51c-.47-.48-1.26-.43-1.72-.94,0,0-.1,0-.15.09a2.68,2.68,0,0,1-1,.41,3.14,3.14,0,0,0-2.27,2c-.06.17-.19.25-.33.16a3.06,3.06,0,0,0-1.15-.23.6.6,0,0,0-.79.73.37.37,0,0,1-.13.41,7.21,7.21,0,0,1-.66.7,1.49,1.49,0,0,0-.34,1.51c.09.51-.46,1.54-1,1.48-.33,0-.56-.08-.69.29s-.32.56-.28.81c.13.69-.41,1.31-.19,2-.76,1.08.11,2.21-.11,3.3.5.28.4.55.2,1a2.39,2.39,0,0,0-.24,1.37,2.29,2.29,0,0,1,0,1.55c0,.06,0,.21.08.22.43.14.58.57.9.81.15.12.46.09.42.38s-.26.29-.47.34-.33,0-.2.3a3.31,3.31,0,0,1,.24,2,.24.24,0,0,0,.28-.14c.09-.11.2-.16.32,0a.21.21,0,0,1,0,.33c-.42.29-.12.4.13.54s.46.25.3.36c-.43.31-.25.76-.39,1.12s-.23.8.26,1.07a.61.61,0,0,1,.31.52c-.05.54.35.64.7.81s.66.15.81.53.8.79.59,1.44a.33.33,0,0,0,.13.28c.77.47.9,1.38,1.36,2.06a.77.77,0,0,1-.46,1.12c-.14,0-.4-.17-.35.14s0,.63.35.64c.59,0,.66.31.53.77a.55.55,0,0,0,.38.7c.27.11.27-.24.38-.39s.07-.34.3-.34c0,.19.09.36,0,.54-.44.63-.31,1,.4,1.31s1.23.47,1.05,1.33c0,.15,0,.36.14.37.71,0,1,.52,1.2,1.08a.33.33,0,0,0,.18.17c.57.2.68.7.77,1.26.28-.23.51-.46.9-.3.62.24,1,.83,1.51,1.18s1.12,1.15,1.77,1.64c.22.16.19.3.15.53-.08.55-.62.58-.91.87a5.78,5.78,0,0,0-1.1,2.27c0,.1-.12.38-.21.18-.18-.39-.25-.15-.23,0,.05.46-.25.56-.58.68-.15.05-.37.11-.42.23-.41,1-1.44,1.46-2.16,2.19-.39.41-1,.31-1.47.61a4,4,0,0,1-2.33.6c-.82,0-.88-.05-.65-.78a.42.42,0,0,0-.44.15c-.33.32-.59.26-.92,0s-.68-.2-.91-.51c-.1-.14,0-.26.09-.38s0-.35-.11-.29c-.36.14-.68.34-.87-.2-.6.27-.57-.26-.69-.57a.83.83,0,0,0-.48-.46A6.46,6.46,0,0,1,16,90.25c-.57-.88-1-1.86-1.57-2.75a4.16,4.16,0,0,1-1.16-2.58.4.4,0,0,0-.18-.31c-.42-.22-.47-.46-.11-.78.14-.12.08-.28,0-.4s-.22-.07-.3,0c-.38.55-.37.09-.41-.17,0-.1,0-.2-.07-.28a1.18,1.18,0,0,1-.51-1.68.26.26,0,0,0,0-.29c-.29-.36-.23-1-.86-1.09-.13,0-.22-.39-.27-.61s.35-.2.31-.46c-.06-.43-.34.12-.44-.1,0,0,0-.09,0-.12a5.33,5.33,0,0,0-.46-1.29c-.24-.37.3-.7-.09-1.1a1.11,1.11,0,0,1,.29-1.24c.18-.15.07-.4,0-.41-.51-.07-.32-.28-.13-.5a.26.26,0,0,0,0-.39c-.12-.12-.27-.06-.41,0s-.14.28-.36.19c.12-.29.23-.58-.23-.71a.23.23,0,0,1,0-.41c.33-.23.35-.23,0-.47-.21-.14-.36-.29-.15-.49s.18-.24-.08-.32-.16-.28-.19-.44c-.1-.5.09-1.09-.53-1.41-.17-.09-.12-.34,0-.52A2.55,2.55,0,0,0,8,67.46c0-.38-.44-.75-.29-1,.31-.56.37-1-.12-1.45-.14-.14,0-.49-.27-.65s-.29-.5,0-.63c.54-.2.59-.71.8-1.12a.24.24,0,0,0-.13-.36c-.14,0-.22.06-.3.17s-.09.41-.48.53c.38-.65-.35-1-.2-1.62,0,0-.08-.1-.13-.12-.69-.18-.77-.72-.78-1.31,0-.18.17-.44-.15-.52s-.38.18-.49.38-.12.55-.34.42-.38,0-.51.22-.16.2-.31.11-.07-.21,0-.32c.2-.43-.08-.68-.41-.59-.51.12-.46-.16-.41-.54-.28.15-.59.22-.57.46,0,.47-.32.83-.34,1.24s-.19.36-.43.43a3.92,3.92,0,0,1-.71,0c-.14.69-.76.36-1.17.55a.51.51,0,0,1-.1.83c-.14.12-.3.35-.14.55s.2.72.36,1-.09.81.08,1.19a12.91,12.91,0,0,0,1.1,1.79l-.47-.19c-.32-.13-.49,0-.48.33a4.79,4.79,0,0,0,.42,2.29c.24.41.74.89.11,1.4a.16.16,0,0,0,0,.12A2.11,2.11,0,0,1,.88,72.3c-.08.16-.11.28.07.42a1.61,1.61,0,0,1,.57,2.12c-.21.53.31,1,.2,1.55,0,0,.1,0,.16.08a1.9,1.9,0,0,1,.78,1.82,1.51,1.51,0,0,0,.47,1.57c.11.11.29.18.16.39-.23-.08-.44-.45-.64-.22s.05.51.3.65.18.3.24.48c.1.33.09.8.4.94a.6.6,0,0,1,.38.55c.21,0,.25-.13.34-.2s.45-.36.71-.1,0,.39-.16.58c-.85,1-.73,1.82.33,2.26a1.86,1.86,0,0,0-.29.6c0,.09-.3.13,0,.27.84.42,0,1.6.91,2-.45.63,0,.79.71,1-.63.12-.68.29-.29.51s.38.87.89,1L7,90.76c-.12.09-.4.09-.29.31s.3.14.47,0,.43,0,.62.13c-.18.16-.5.08-.53.46.35-.11.64.19,1,0,.09,0,.14-.26.27-.08a.31.31,0,0,1,0,.41c-.12.14-.3.24-.19.47.27.52.79.89.73,1.61,0,.28.71.47.3,1-.12.17.28.34.3.56.08.67.09.68.64.31.2-.14.42-.4.54.06s-.38,0-.38.32a1,1,0,0,0,1.1.55c-.19.52,0,.6.36,1.28s1.72.43,1.72,1.56c0,0,.14.07.2.12s.4.13.53.33c-.3.15-.56-.25-.88,0,.65.11,1,.7,1.57,1a6.35,6.35,0,0,1,1.69.84c.22.17.38,0,.46-.25s.22-.44.57-.32c-.37.42-.33.53.24.61.83.12,1.68.24,2.08,1.27.32.86,1,.9,1.68.31.19-.16.47-.35.66,0a1.24,1.24,0,0,0,1.42.7c.15,0,.22-.1.28.07.16.43.46.35.75.19a.92.92,0,0,1,.72-.11,1,1,0,0,0,1-.39c.73-1.2,1-1.32,2.23-.57-.17.09-.42,0-.49.21a.19.19,0,0,0,0,.16.54.54,0,0,0,.58-.12c.08-.07.19-.11.24-.2a.49.49,0,0,1,.71-.26c.2.08.4-.08.59-.14s.57-.31.89-.27a.4.4,0,0,0,.51-.33c.1-.3.49-.51.31-.92.71-.22.87-1.14,1.68-1.22.11.14-.23.34,0,.52.59-.66.76-1.24.51-1.64a16.21,16.21,0,0,1,1.77-.88c.21-.06.39-.41.78-.31.11,0,.33-.1.17-.28s-.06-.34.14-.46.17-.36,0-.52a2.92,2.92,0,0,0-.4-.29c-.4-.31,0-.6,0-.89s.14-.3.31-.23c.37.15.05.43.09.65a.35.35,0,0,0,.09.11A1.13,1.13,0,0,0,37.62,95c-.24-.71,0-1.1.68-1.06.46,0,.67-.16.64-.61,0-.2,0-.42.24-.41s.47-.28.69-.44c-.11-.19-.47.06-.42-.25a.34.34,0,0,1,.44-.24c.3.11.36-.13.45-.31a1,1,0,0,1,.69-.51c.6-.2,1.09.11,1.61.19.73.12,1.46,0,2.18.16.09,0,.27,0,.29,0,.29-.61.72-.36,1.15-.21s.61-.07.91-.15.67-.25,0-.8a5,5,0,0,0,.82.33c.31,0,.77.17.87-.17a4.25,4.25,0,0,1,.47-.84c.15-.28,0-.88.66-.66.37.13.64-.31,1.06,0s1,.08,1.43.31a.26.26,0,0,0,.33-.1c.25-.46.91-.35,1.14-.86.07-.15.32-.15.52-.07a.61.61,0,0,0,.8-.41c.13-.43.44-.44.75-.51.14,0,.34.07.41-.08.32-.79,1.53-.67,1.68-1.65,0-.2.37-.22.59-.29.41-.12.93-.27,1.06-.65a1.07,1.07,0,0,1,.84-.71.62.62,0,0,0,.53-.81c0-.36-.1-.75.36-.94.08,0,.1-.17.16-.26a.75.75,0,0,0,0-.79.87.87,0,0,0,.81-.37c.27-.39.52-.8.8-1.18.16-.22.21-.51.34-.7.32-.46-.24-1.23.55-1.5.1,0,.06-.23,0-.35-.26-.59.11-.94.47-1.31a.38.38,0,0,1,.6,0c.35.4.48.14.6-.16s.34-.52,0-.84.06-.36.21-.5A.78.78,0,0,0,66.2,73a.45.45,0,0,1,0-.69.9.9,0,0,0,.13-.41c0-.49,0-1,.54-1.28A.41.41,0,0,0,67,70.1c-.12-.2-.24.18-.45.05a.75.75,0,0,0,0-.87c-.13-.21-.4-.39-.16-.65S66.82,68.6,67,68.81Zm-34.1,5.86c-.29.14-.71.33-.79.53a1.16,1.16,0,0,0,.33,1c.33.34.23.6-.08.82s-.48.18-.61-.16a14.08,14.08,0,0,0-2.16-3,6.6,6.6,0,0,1-1.08-2.44c-.08-.33.34-.06.34-.35-.27-.19-.72.11-.87-.32s0-.63-.27-.93-.18-.39-.39-.54-.26-.44-.21-.48c.43-.42.1-.65-.18-.92-.06-.07-.12-.24-.09-.29.44-.49,0-.95,0-1.43,0-.21,0-.37.2-.47a.36.36,0,0,0,0-.67c-.35,0-.4-.58-.8-.42-.09-.27-.48-.63-.34-.74.47-.38,0-.7,0-1s-.23-.58.11-.89-.2-.36-.17-.61c.12-.85.16-1.72.32-2.56a2.37,2.37,0,0,1,.23-1c.2.7.89,1,1.05,1.65.05.24.25.12.35,0,.29-.47.69-.32,1-.12a1,1,0,0,1,.51,1,21.12,21.12,0,0,1-.39,3.17c-.05.21.22.33.46.22a.18.18,0,0,1,.26.09c.06.19.24.4.05.58-.52.49.47.37.28.72.47.11.57.25.32.52a.87.87,0,0,0,.08,1.42,1.33,1.33,0,0,1,.29.47c.17.46.37.87,1,.51-.06.36-.07.6-.48.56s-.38.34-.44.57c-.09.38.26.25.41.26.54,0,.48.3.24.6s-.13.32.13.36.41.28.34.58A3.13,3.13,0,0,0,32,72a4.31,4.31,0,0,1,.2,1.45c-.07.38,0,.91.68.87.16,0,.39,0,.36.25S33,74.63,32.92,74.67Z"/><path class="cls-2" d="M96.38,14.23c-.1-.25-.42-.24-.67-.17s-.4.17-.52,0,.18-.32.21-.51.4-.39.18-.42c-.65-.1-1.06-.88-1.82-.61a5.94,5.94,0,0,1-.86.16c-.23,0-.42,0-.49-.26-.13-.47-.47-.4-.84-.4-.73,0-1.43.44-2.17.09-.11,0-.17.06-.24.14-.37.4-.75.27-1.11,0a1,1,0,0,0-1.58.29c-.11.17-.2.31-.44.21a1.66,1.66,0,0,0-2,.44,4.93,4.93,0,0,1-1.38.29,1.15,1.15,0,0,0-1.21-.25.81.81,0,0,1-.77-.18c.56-.2.84-.75,1.35-1,.91-.48,1.79-1,2.69-1.54s1.87-1,2.77-1.61a5.57,5.57,0,0,0,1.79-1.42c.31-.44.42-1.07,1.08-1.22.13,0,.16-.24.17-.39a1.36,1.36,0,0,1,.29-.59c.32-.5.88-.68,1.28-1.07.23-.22.18-.77-.13-.81s-.26-.24-.15-.4c.26-.36,0-.44-.26-.47a2.5,2.5,0,0,0-.54.07c0-.66,0-.66-.6-.91-.16-.06-.33-.12-.36-.31C90,.66,89.55.71,89,.9c-.82.3-.83.28-1.1-.51-.16-.47-.37-.51-.72-.14-.13.14-.29.34-.46.26-.38-.16-.47.16-.65.32s-.23.53-.31.8-.21.5-.55.26c-.18-.12-.51-.21-.56,0-.14.56-.6.36-.92.46a3.93,3.93,0,0,0-.8.32c-.64.34-.86,1-1.22,1.51s-.59,1.21-1.44,1.26-1.29,1-2.18.5c0,0-.15,0-.23.06a16.14,16.14,0,0,0-1.51.57c-1.06.28-1.66,1.21-2.43,1.86-.39.33-.62.82-1.21.93a.53.53,0,0,0-.36.53,1.17,1.17,0,0,1-.6,1c-.27.16-.63.2-.78.36-.67.68-1.61.7-2.38,1.11-.16.09-.38.12-.48-.11a.33.33,0,0,1,.19-.42c.22-.12.46-.24.51-.52A4.62,4.62,0,0,0,69,9.15a1.51,1.51,0,0,1,0-.73c.12-.47.3-.92-.27-1.33a.73.73,0,0,1-.1-1.19c.25-.23.21-.62.32-.93.17-.5.17-1.1.73-1.42a.28.28,0,0,0,.11-.33.22.22,0,0,0-.14-.08.83.83,0,0,1-.66-1c.06-.15.21-.3,0-.43s-.34-.31-.56-.12-.51.13-.71-.15a.58.58,0,0,0-.55-.31c.14.42.08.68-.47.55-.15,0-.35.09-.53.14s-.28.1-.35,0c-.43-.79-.69-.25-1,.09s-.52.51-.9.22-.66-.33-.94.25-.45,1.3-.75,1.9a4.32,4.32,0,0,0-.5,2.87,9.87,9.87,0,0,1-.28,2.72c0,.26-.37.41-.29.73A4.61,4.61,0,0,1,61,12.38c-.06.32-.17.34-.45.18a.66.66,0,0,0-.76,0c-.49.37-.68.3-.86-.27-.1-.28-.21-.68-.49-.65A2.34,2.34,0,0,1,57,11.22a8.28,8.28,0,0,0-3.36-.51c-.56,0-.78-.15-.73-.76,0-.29-.06-.45-.32-.51-1.1-.28-2.26-.13-3.36-.43H49.2a13.91,13.91,0,0,0-1.46.26c-.39.12-1-.39-1.18.32H46.5c-.58-.17-.82,0-.63.62a.29.29,0,0,1,0,.24c-.51.55-.11,1,.18,1.4.19.28.4.67.16.92a1.05,1.05,0,0,0-.08,1.64c.49.61.69,1.47,1.62,1.63.06,0,.11.07.15.11a.8.8,0,0,0,1,.2.47.47,0,0,1,.65.21c.13.38.45.43.7.62a7.59,7.59,0,0,0,2,.84,4.29,4.29,0,0,0,2.79.55c.3-.09.69-.17.84.16s.33.7,0,1a.39.39,0,0,0,0,.57c.36.47,0,.58-.34.6a1.26,1.26,0,0,1-.87-.13c-.15-.12-.23-.06-.27.08-.32,1-1.47.84-2,1.52,0,0-.08,0-.12,0-.43-.18-.72.12-1,.36A4.25,4.25,0,0,1,49.05,24c-.14.05-.11.15-.06.25s0,.21-.16.27c-.41.2-.81.42-1.22.61a1.45,1.45,0,0,0-.71.48c-.33.56-.71.86-1.38.61-.19-.07-.3.09-.36.26a2.28,2.28,0,0,0-.13.86,1.3,1.3,0,0,1-1.09,1.38c-.37,0-.87-.32-1,.36,0,0-.15,0-.23,0a1.92,1.92,0,0,0-2,.85c-.17.25-.34.48-.71.38s-.4.08-.47.31a.77.77,0,0,1-.42.51c-1.43.57-1.82,2.79-1.3,3.92.09.21.15.37,0,.57s.11.52.23.75a.43.43,0,0,0,.6.19,1,1,0,0,1,.84,0c.62.21,1,.78,1.77.82a2,2,0,0,0,1.14-.11c1.76-1,3.44-2.16,5.12-3.28,2.19-1.46,4.37-2.94,6.59-4.36,1.32-.85,2.62-1.74,4-2.52.48-.28,1-.52,1.49-.77.13-.07.29-.13.41,0s0,.28-.08.38a.6.6,0,0,0-.1.69,1,1,0,0,1-.24,1,1,1,0,0,0-.11,1.15c.24.54.63,1,.29,1.71a2.31,2.31,0,0,0-.27,1.24,5.42,5.42,0,0,1-.17,2c0,.23.11.39.25.55a8.09,8.09,0,0,0,2,1.34c.11.06.23.06.28,0s.24-.1.41-.1A2.58,2.58,0,0,0,63.36,36a1,1,0,0,1,.73-.2c.74.24.49-.2.45-.56s-.1-.94.3-1.13.55-.58.64-1a6.84,6.84,0,0,1,.22-1c.19-.43.12-1,.55-1.26s.38-.3.29-.63c-.3-1,.33-2,.17-3,0-.09.06-.2.13-.28a7.13,7.13,0,0,0,.89-1.26,1.77,1.77,0,0,0,1.61.86c.19,0,.33.06.36.27a.46.46,0,0,0,.2.36,24.22,24.22,0,0,0,3,1.79,27.45,27.45,0,0,1,3.46,2,4.08,4.08,0,0,0,.39.31c1.91,1.13,3.83,2.26,5.75,3.41.18.11.38.2.47,0s.5-.47.3-.79-.27-.31,0-.5.43-.09.61.08c.39.39.92.32,1.4.42.1,0,.26,0,.25-.12-.05-.48.56-.82.24-1.4-.09-.16,0-.51-.11-.76s0-.48.31-.45.72,0,.81-.38.06-.61.41-.75a.51.51,0,0,0,0-.11c-.15-.27,0-.46.16-.66s.26-.43-.12-.53-.48-.38-.27-.7,0-.4-.22-.59c-.53-.41-1.29-.39-1.71-1a.54.54,0,0,0-.62-.2c-.39.07-1,.16-.9-.62a.25.25,0,0,0-.18-.29,9.45,9.45,0,0,1-1.93-1.05,29.21,29.21,0,0,0-2.76-1.61,2.35,2.35,0,0,1-.69-.38c-.2-.18-.4-.36,0-.51a3.59,3.59,0,0,0,1.16-.57.81.81,0,0,1,1.12,0c.23.16.4.25.67.07s-.25-.34,0-.55c.32,0,.68-.12,1-.08a3.32,3.32,0,0,0,1.66,0,11.07,11.07,0,0,1,2.26-.12c1.5-.1,2.92-.61,4.41-.72.4,0,1.07-.25,1.13-.82a1.08,1.08,0,0,1,1-1c.89-.23,1-.38.54-.91.44-.15.4-.15.43-.57s-.1-.73.18-.79c.43-.09.73-.43,1.2-.46a4,4,0,0,0,1.36-.41C96.14,14.67,96.48,14.52,96.38,14.23Z"/></g></g></svg>