<svg xmlns="http://www.w3.org/2000/svg" viewBox="0 0 76.42 149.84"><defs><style>.cls-1{fill:#22d796;}.cls-2{fill:#66e7bd;}</style></defs><g id="Layer_2" data-name="Layer 2"><g id="Layer_1-2" data-name="Layer 1"><path class="cls-1" d="M76.42,144.58c0-.45-.24-.88-.11-1.32.07-.24.28-.48-.18-.55a.16.16,0,0,1,0-.3c.38-.13.27-.25,0-.33s-.13-.17-.14-.29a2.31,2.31,0,0,0-.45-1.14,5.28,5.28,0,0,1-.85-1.65,5.76,5.76,0,0,0-1-1.9c-.11-.16-.2-.31-.43-.31-.57,0-.75-.12-.23-.55.13-.11.07-.28,0-.41-.27-.51-.55-1-.84-1.52-.09-.14-.18-.32-.45-.18s-.48-.23-.43-.28c.46-.42.1-.77-.06-1.13-.42-.91-.62-2-1.59-2.51-.1-.05-.09-.1-.06-.19.18-.62-.34-.87-.71-1-.55-.13-.67-.47-.85-.88s0-1-.19-1.47a15.11,15.11,0,0,0-1.21-2c-.42-.82-1.15-1.41-1.55-2.3a7.82,7.82,0,0,0-1.23-2.12.91.91,0,0,1-.3-.6,1.2,1.2,0,0,0-.54-1c-.24-.21-.4-.49-.61-.69-.4-.36-.51-1.15-1.38-.93a.6.6,0,0,0,.14-1,3.84,3.84,0,0,0-1-1c-.54-.33-1.11-.79-1.05-1.44s-.64-1.06-.51-1.73c0-.09-.44-.39-.67-.39-.55,0-.68-.24-.8-.72s.14-1.4-.58-1.85c-.34-.21-.86-.26-.77-.87,0-.12-.18-.15-.31-.14a1.12,1.12,0,0,1-.88-.39,15.64,15.64,0,0,0-1.23-2A5.87,5.87,0,0,0,52,103.74a1,1,0,0,1-.49-1.33c.18-.42-.2-.77-.57-1a6.64,6.64,0,0,1-1.67-1.54.32.32,0,0,1-.08-.29c.18-.43-.08-.67-.35-.91a2.3,2.3,0,0,1-.47-.72c-.19-.36-.32-.84-.72-1-.93-.29-1.23-.54-1.42-1.48,0-.13-.14-.19-.23-.27a1.17,1.17,0,0,1-.47-.9c0-.35-.22-.68-.69-.55-.28.08-.32,0-.29-.27A1.7,1.7,0,0,0,43.18,92c-.53,0-.76-.35-.63-.78a1,1,0,0,0-.28-1c-.24-.32-.5-.61-.72-.94a7,7,0,0,0-2.32-1.94,1.83,1.83,0,0,1-1.07-1.4,1.12,1.12,0,0,0-.8-1,.66.66,0,0,1-.45-.48c-.09-.29-.4-.55-.52-.89-.71.26-.62-.25-.67-.67a1.44,1.44,0,0,0-.28-.55c-.1-.15-.31-.3-.14-.48a.53.53,0,0,1,.61-.18A1.89,1.89,0,0,0,38,81.25a.52.52,0,0,1,.4-.13c.8.44,1.81-.23,2.53.58.06-.24-.07-.32-.15-.44a.2.2,0,0,1,0-.28c.08-.1.2-.12.27,0,.27.3.38.07.51-.13a.35.35,0,0,1,.43-.15,14.65,14.65,0,0,0,1.59.19c.51.1.43-.09.4-.41-.05-.62,0-1.22.72-1.46.12,0,.23-.17.1-.29-.32-.29-.11-.41.14-.54s.23-.21.14-.31c-.46-.55,0-1.13-.12-1.7.22.07.35.32.54.2s0-.34,0-.51c-.06-.39-.31-.76,0-1.19a.36.36,0,0,0-.4-.51c-.14,0-.22,0-.25-.18a13.14,13.14,0,0,0-1.45-3.73,2,2,0,0,1-.21-1,1.5,1.5,0,0,0-.55-1.38,1,1,0,0,1-.41-.49,3.34,3.34,0,0,0-1.81-2c-1-.33-1.39-1.22-2.17-1.7-.07,0-.07-.19-.08-.29-.07-.66-.21-1.28-.93-1.56-.16-.06-.18-.21-.18-.37s0-.23-.21-.23a1.19,1.19,0,0,1-1-.9c-.25-1-1.35-1.14-1.78-2a3.83,3.83,0,0,1-.6-1.17c0-.3.41.28.7.1.07,0,.23,0,.31,0,.6-.34,1.08,0,1.6.26a14,14,0,0,0,4.07.72,1,1,0,0,0,1-1.07c-.07-.33,0-.57.3-.65s.38.21.5.41c-.48.18-.49.18-.51.35s0,.42.29.48.19.07.09.2-.36.33-.09.51.33-.13.47-.26a.6.6,0,0,1,.21-.14c.94-.4,1-.6.72-1.57-.06-.18-.13-.33.11-.39.44-.12,1-.14,1-.78,0,0,.06,0,.1-.07.59-.38.66-.68.24-1.24-.12-.16-.21-.26-.15-.49A4,4,0,0,0,44.65,51s0-.11,0-.16c.24,0,.15.36.49.27-.36-.55-.05-1.4-.91-1.7,0,0-.08-.14-.09-.21-.15-.79-.43-1.45-1.37-1.54-.18,0-.23-.25-.17-.35.34-.54-.16-.77-.41-1s-.54-.37-.5-.79c0-.09-.15-.18-.22-.28a7,7,0,0,1-.73-1.12,1.4,1.4,0,0,0-1.18-.83c-.69,0-.75-.23-.76-.77s0-1.17-.46-1.42a4.77,4.77,0,0,1-1.55-1.71l-.21-.3c-.06-.08-.14-.23-.2,0-.12.39-.34.15-.48.07a1.32,1.32,0,0,1-.77-1.31c0-.32,0-.47-.4-.42a.5.5,0,0,1-.57-.52c0-.63-.85-.76-.85-1.38,0,0-.1-.08-.16-.08-.27,0-.36-.29-.54-.36-.68-.29-.39-1.6-1.49-1.4,0,0,0-.06-.07-.1a9.27,9.27,0,0,0-2.22-2.37,1,1,0,0,1-.37-.49,2,2,0,0,0-1.15-1.08c-.11-.05-.27,0-.32-.14a6.13,6.13,0,0,1-.68-1.76c-.08-.95-.89-1.52-1.54-2.13-.09-.09-.23-.06-.36,0a.39.39,0,0,1-.51-.24c-.18-.43-.78-.69-.57-1.31.05-.14-.15-.22-.25-.32-.26-.25-.62-.48-.72-.79-.28-.81-.6-1.54-1.53-1.77-.17,0-.08-.14-.09-.23a1.44,1.44,0,0,0-1-1.18c-.11,0-.21,0-.23-.16s.09-.17.2-.16c.3,0,.29-.15.14-.29s-.05-.66-.45-.19c-.11.13-.86-.6-.85-.9s0-.39-.21-.47c-.79-.35-.59-1.33-1.17-1.85-.18-.16-.19-.5-.57-.42s-.35-.11-.47-.31.08-1-.62-1c0,0,0-.2,0-.3A1.68,1.68,0,0,0,14,12.27c0-.19.31-.39.06-.54a6.45,6.45,0,0,1-1.22-1.17,2.8,2.8,0,0,1-.68-1.12.55.55,0,0,0-.32-.4c-.56-.25-1-.57-.88-1.32a.47.47,0,0,0-.12-.35A6.8,6.8,0,0,0,9.22,5.71a.82.82,0,0,1-.48-1c.06-.19.11-.4,0-.54-.43-.41-.42-1.26-1.26-1.27,0,0-.08-.1-.13-.12C6.54,2.35,6.23,1.48,5.51,1c-.07,0-.1-.18-.1-.28s0-.38-.19-.38S4.87.45,4.8.73s-.57.83-.9.7c-.69-.25-1,.09-1.45.46-.17.15-.36.44-.64.21s-.08-.48.11-.67c-.14-.17-.34,0-.47-.18C1.08.8,1,1.22.89,1.47A.55.55,0,0,0,1.05,2c.08.11.23.24.11.38s-.24,0-.37-.09c-.41-.22-.64-.09-.66.4,0,.32-.36.68.13.95,0,0,0,.23-.06.34A2.48,2.48,0,0,0,.41,5.62C.72,6.23.6,7,1,7.48c0,0,0,.13-.05.18-.28.46.12.66.38.87.1.09.28.08.32.25a4.67,4.67,0,0,0,1,1.88,23.12,23.12,0,0,0,1.94,2.49,17.72,17.72,0,0,1,1.5,2.23c.31.47.66.66,1.18.34a.43.43,0,0,1,.57.09c.17.17,0,.27-.08.41a2.67,2.67,0,0,0-.17,1c0,.27.39.19.58.3s.77.36.81.86c0,.11.1.23-.09.3s-.32.17-.08.3a1.38,1.38,0,0,1,.62.75c.27.7,1,1,1.33,1.67a.3.3,0,0,0,.21.13c.67,0,.91.39.89,1,0,.25.1.32.3.18s.38-.35.6-.14.07.44,0,.66a2.84,2.84,0,0,0,.47,1.54c.37.67,1,.7,1.65.68a1.37,1.37,0,0,0,.2,1.86c.4.28.65.88,1.32.72.13,0,.31.12.32.32a.18.18,0,0,1-.08.16c-.18.1-.25-.08-.35-.17s-.18-.1-.27,0,0,.1,0,.12c1.36,1.47,2.43,3.19,3.88,4.59.37.35.35.36.78.38.05,0,.09.11.16.16.61.47.59,1.32,1.1,1.87.14.14.25.44.45.35.59-.26.61,0,.55.48,0,.18.09.27.22.34a1.15,1.15,0,0,1,.5.68.62.62,0,0,0,.42.44c.26.08.33.29.48.49a9.72,9.72,0,0,0,1.56,2,21.25,21.25,0,0,1,1.93,2.1c1,1.12,1.86,2.37,3,3.4A2.62,2.62,0,0,1,32,47.07a.65.65,0,0,0,.44.56,2.77,2.77,0,0,0-.6.25c-.5.38-.87.23-1.2-.24a.48.48,0,0,0-.53-.23.65.65,0,0,1-.54-.11,5.19,5.19,0,0,0-2.2-.68.5.5,0,0,0-.36,0c-.41.22-.59.21-.44-.33.07-.24-.17-.26-.32-.29-.75-.11-1.32-.94-2.2-.54-.1,0-.18-.07-.26-.14a.78.78,0,0,0-1.16,0c-.2.18-.35.17-.41-.07-.14-.61-.39-.59-.81-.24s-.72-.21-1.09-.31c-.2-.05-.28-.22-.19-.45s.3-.42,0-.42-.64-.58-.86.06a.34.34,0,0,1-.36.21A.25.25,0,0,1,18.8,44c.24-.44-.2-.62-.4-.79s-.67-.84-1-.73a6.43,6.43,0,0,1-2.4-.17c-.44,0-1.09-.07-1.11-.81a.16.16,0,0,0-.14-.17,4.54,4.54,0,0,1-1.58-.76c-.25-.16-.62.15-.7-.06-.29-.82-1.4-.35-1.69-1.15,0-.12-.32,0-.45.07a1,1,0,0,0-.39.75c0,.6-.23.83-.83.64-.88-.27-1.83,0-2.68-.42a.39.39,0,0,0-.45.14c-.12.14,0,.27.09.37s.3.22.12.4-.31.05-.45,0a1.22,1.22,0,0,0-.28-.14c-.2,0-.42-.21-.58,0s.09.32.2.46.21.29.12.45-.28.1-.44,0A2.7,2.7,0,0,0,3.26,42c-.11,0-.26-.08-.33.06s.07.23.17.29c.31.21.64.38.93.6.11.09.34.19.24.38a.39.39,0,0,1-.46.13,1.52,1.52,0,0,0-1-.12c-.16.06-.43-.12-.48.14s.23.31.41.4a21.76,21.76,0,0,1,2.5,1.5c1,.69,1.08,1,.51,2-.12.23,0,.4.11.35.39-.31.41.23.61.25.28-.15-.09-.46.24-.63a1.4,1.4,0,0,0,.82,1.25,19.74,19.74,0,0,0,2.65.92c.17.06.44.09.09.31-.11.08-.06.18,0,.28s.18.16.31.09c.55-.32,1,0,1.43.26.22.15.41.36.63.51,1.29.92,2.67,1.69,3.91,2.7,1.69,1.39,3.42,2.74,5.15,4.1.87.68,1.48,1.72,2.67,2,.11,0,.16.1.2.21a3.38,3.38,0,0,0,1.23,1.65,3.54,3.54,0,0,1,1,1c.11.18.15.42.37.48.54.16.82.61,1.22.93s.65,1.05,1.15,1.38a3.47,3.47,0,0,1,.92,1c.83,1.19,1.89,2.23,2.82,3.36.29.37.35.12.49-.17.06.21.11.32.13.44.09.38.14.77.7.41.23-.14.31,0,.34.29.06.47-.42.9-.06,1.37.09.11.25.27.12.37s-.32.21-.49,0-.15-.2-.24-.08c-.25.34-.56.18-.85.13s-.46,0-.59.22-.31.25-.5,0c-.44-.58-1.26-.33-1.76-.8a.19.19,0,0,0-.12,0c-.38.22-.58,0-.73-.3,0,0-.07,0-.14,0v.53a1.63,1.63,0,0,0-1.07-.34c-.76.13-1.14-.47-1.58-.87a3.1,3.1,0,0,0-1.94-.66.09.09,0,0,0-.05,0c-.18.18-.38.1-.59.07-.4-.06-.68-.67-1.2-.25-.08.07-.17-.13-.26-.22-.27-.32-.68-.54-.75-1-1,0-1.47-1-2.44-1-.35,0-.63,0-.75.37-.21.66-.66.67-1.24.59a8.37,8.37,0,0,1-2.52-.42c-.16-.07-.58-.19-.68.06s.27.4.48.55c0,0,0,.08,0,.12a.72.72,0,0,1-1,0c-.16-.15-.4-.35-.6-.15s0,.41.16.58.26.22.24.47a2.34,2.34,0,0,1-.83-.14c-.13,0-.29-.18-.38,0a.33.33,0,0,0,.15.38,2.41,2.41,0,0,1,.75.74c-.25.23-.59.2-.87.33s-.44,0-.45.23a.51.51,0,0,0,.39.44,2.85,2.85,0,0,1,1.26.88c.77.76,1.72,1.39,2,2.54,0,.07.11.18.15.18.7-.19.71.92,1.39.73.67.87,1.76,1.17,2.52,2,1.44,1.5,3.16,2.69,4.47,4.34.82,1,1.82,1.89,2.72,2.85,1.8,1.9,3.51,3.88,5.18,5.89.57.7,1.2,1.35,1.77,2,.26.32.37.72.93.59.23-.06.47.17.61.37a4.79,4.79,0,0,0,.7.86c.19.17.47.53.06.85-.15.12,0,.25.07.38.51,1,1.44,1.63,2,2.57a.23.23,0,0,0,.38,0c.12-.12.24-.28.41-.11a.35.35,0,0,1,0,.55.34.34,0,0,0,0,.5l2.61,3.31c.08.11.11.27.33.17.42-.2.52,0,.46.41a.81.81,0,0,0,.25.85,5.07,5.07,0,0,1,1.05,1.35,7.32,7.32,0,0,0,1.19,1.17c.46.4.83.72.83,1.34,0,.3.2.46.4.61s.2-.35.47-.24c.06.25-.1.59.15.75a1.46,1.46,0,0,1,.54,1.07,1.4,1.4,0,0,0,.24.56,10.38,10.38,0,0,0,.87,1.19c.32.32.27,1,.73,1,1,.18.91,1.23,1.44,1.77,0,0,0,0,0,.06,0,.3,0,.52.39.31.24-.12.34.12.22.26-.39.45,0,.71.2,1s.64.5.75.9a7.48,7.48,0,0,0,1,1.85c.23.37.39.91.72,1.06a2.64,2.64,0,0,1,1.64,1.73,1.84,1.84,0,0,0,.88,1.15c.24.14.22.71.85.58-.52.36-.32.68-.07,1a1.43,1.43,0,0,1,.34,1c0,.36,0,.52.49.6s1,.24,1.06.92a3,3,0,0,0,.7,1.63,1.86,1.86,0,0,1,.61,1.45,1.61,1.61,0,0,0,.52,1.34c.06.07.1.21.23.08.31-.34.4,0,.53.18s.31.49.44.75c.32.63.92,1.09,1.1,1.79a1.81,1.81,0,0,0,.69,1.14.69.69,0,0,1,.29.83c-.38.9.22,1.46.6,2.14.21-.22-.07-.46.09-.67a5.37,5.37,0,0,1,.89,1.57,1.47,1.47,0,0,0,.8.82c.77.42,1,.67.8,1.53a.62.62,0,0,0,.4.79c.56.1.28.38.16.55-.36.52-.13.92.18,1.41a.7.7,0,0,0,0-.66c-.08-.15-.3-.28-.08-.47a.37.37,0,0,1,.29,0c.22.08.23.26.19.46s-.32.78.38.74c.07,0,.14.15.22.21.45.36,1.18.25,1.47.88,0,.09.2-.16.32-.05.11.26-.34.36-.06.6s.58,0,.72.4.36.54.6.05a.36.36,0,0,1,.1.07c.22.54.83.68,1.17,1.13a14,14,0,0,0,1,1.14.43.43,0,0,0,.57.09c.2-.13.29-.47.2-.54-.51-.34-.43-.76-.44-1.29s-.08-.66.52-.61c.22,0,.53.07.68-.17s-.08-.33-.22-.45,0-.24,0-.38A7.4,7.4,0,0,0,76.42,144.58Z"/><path class="cls-2" d="M54.48,26.18a1,1,0,0,1-.16-1.06.91.91,0,0,0-.14-.94,2.36,2.36,0,0,1,0-1.81.81.81,0,0,0,.15-.91c-.12-.42-.37-.86-.21-1.27.3-.74-.09-1.35-.24-2a1.55,1.55,0,0,0-.61-.74c-.23-.17-.4.11-.55.28a.14.14,0,0,1-.21-.05,1,1,0,0,1-.14-.6c0-.15.15-.1.24,0,.26.16.53.06.56-.17a9.47,9.47,0,0,0,.26-1.2,18.92,18.92,0,0,1,.13-2.72c.14-.89-.34-1.65-.39-2.49,0-.11-.18-.21-.26-.33a.68.68,0,0,1-.18-.64,20.41,20.41,0,0,1,.4-2c.22-.46.47-1-.09-1.4a.26.26,0,0,1,0-.23.73.73,0,0,0-.23-.94.48.48,0,0,1-.05-.58.48.48,0,0,0-.4-.74,1,1,0,0,1-.86-.71A1.48,1.48,0,0,1,51.31,2,2,2,0,0,0,51,.74c-.26.06-.11.38-.36.44-.36-.19-.21-.73-.5-.95-.27.1-.09.41-.29.46s-.17-.38-.44-.3a.48.48,0,0,0,0,.37c0,.23,0,.43-.25.5s-.37-.14-.43-.34a1.9,1.9,0,0,0-.47-.65C48.17.17,48.05-.09,48,0s-.68.26-.61.52c.18.71-.15.51-.52.38a.35.35,0,0,0-.29,0C46,1.54,45.38,2,45.4,2.9a10.84,10.84,0,0,1-.09,2.61.85.85,0,0,0,.08.49,5.91,5.91,0,0,1,.24,3.25,11.71,11.71,0,0,0,.07,2.65A9.38,9.38,0,0,1,45.9,15,9.26,9.26,0,0,0,46,17.86a14.74,14.74,0,0,0,.39,3.8v.06a3.44,3.44,0,0,0,.46,2.67.26.26,0,0,1,0,.29c-.59,1,.18,2.08-.06,3.14-.11.47.22,1,.16,1.54A3,3,0,0,0,47.41,31c.17.4.65.64.44,1.25a1.71,1.71,0,0,0-.16,1.21c.08.2,0,.52.29.57s0-.41.37-.42c.41.77.3,1.75.8,2.63.2-.32,0-.67.4-.72a.33.33,0,0,1,.4.21c.12.31.42.53.65.43a.69.69,0,0,0,.27-.82c-.1-.4.08-.63.4-.93s.59-.54,1.17-.25c.42.2.89-.34,1.28-.64s0-.54,0-.82,0-.8.57-.63c.24.08.23-.07.28-.2a1.45,1.45,0,0,0,0-1.53.58.58,0,0,1,.18-.87A.36.36,0,0,0,55,29.2C55.05,28.16,55.23,27.1,54.48,26.18Z"/></g></g></svg>